[img]http://briefcase.pathfinder.gr/download/540731/numberone.gif[/img]
[img]http://briefcase.pathfinder.gr/download/538827/seed.gif[/img]

[img]http://www.33smiley.com/smiley5/work/5.gif[/img]


[img]http://images.amazon.com/images/P/B00005V1Y3.01._SCLZZZZZZZ_.jpg[/img]

IMDB Link:http://www.imdb.com/title/tt0279286/

Plot:A young man meets a girl on a train, only to spend the rest of the movie trying to reunite with her (one of the 

love-at-first-sight things), aided by his best friend in a quest of posters and signs that soon gains public notice. 

Will he ever find his soul mate?

[IMG]http://i981.photobucket.com/albums/ae294/fasamoo/OntheLine2001DVDRipGoGo_20100518-17.jpg[/IMG]
[IMG]http://i981.photobucket.com/albums/ae294/fasamoo/OntheLine2001DVDRipGoGo_20100518-1.jpg[/IMG]
[IMG]http://i981.photobucket.com/albums/ae294/fasamoo/OntheLine2001DVDRipGoGo_20100518-2.jpg[/IMG]
[IMG]http://i981.photobucket.com/albums/ae294/fasamoo/OntheLine2001DVDRipGoGo_20100518-3.jpg[/IMG]
[IMG]http://i981.photobucket.com/albums/ae294/fasamoo/OntheLine2001DVDRipGoGo_20100518-4.jpg[/IMG]
[IMG]http://i981.photobucket.com/albums/ae294/fasamoo/OntheLine2001DVDRipGoGo_20100518-5.jpg[/IMG]


General
Complete name                    : On the Line 2001 DVDRip GoGoOn the Line 2001 DVDRip GoGo.avi
Format                           : AVI
Format/Info                      : Audio Video Interleave
File size                        : 700 MiB
Duration                         : 1h 25mn
Overall bit rate                 : 1 144 Kbps
Writing application              : VirtualDubMod 1.5.4.1 (build 2178/release)
Writing library                  : VirtualDubMod build 2178/release

Video
ID                               : 0
Format                           : MPEG-4 Visual
Format profile                   : Advanced Simple@L5
Format settings, BVOP            : Yes
Format settings, QPel            : No
Format settings, GMC             : No warppoints
Format settings, Matrix          : Custom
Codec ID                         : XVID
Codec ID/Hint                    : XviD
Duration                         : 1h 25mn
Bit rate                         : 1 017 Kbps
Width                            : 608 pixels
Height                           : 320 pixels
Display aspect ratio             : 1.900
Frame rate                       : 23.976 fps
Resolution                       : 8 bits
Colorimetry                      : 4:2:0
Scan type                        : Progressive
Bits/(Pixel*Frame)               : 0.218
Stream size                      : 623 MiB (89%)
Writing library                  : XviD 1.2.1 (UTC 2008-12-04)

Audio
ID                               : 1
Format                           : MPEG Audio
Format version                   : Version 1
Format profile                   : Layer 3
Mode                             : Joint stereo
Format_Settings_ModeExtension    : MS Stereo
Codec ID                         : 55
Codec ID/Hint                    : MP3
Duration                         : 1h 25mn
Bit rate mode                    : Variable
Bit rate                         : 114 Kbps
Nominal bit rate                 : 128 Kbps
Channel(s)                       : 2 channels
Sampling rate                    : 48.0 KHz
Stream size                      : 69.9 MiB (10%)
Alignment                        : Aligned on interleaves
Interleave, duration             : 24 ms (0.58 video frame)
Interleave, preload duration     : 430 ms
Writing library                  : LAME3.98r
Encoding settings                : -m j -V 4 -q 2 -lowpass 17 --abr 128
Language                         : English
Subtitles                        : English
Genre                            : Comedy | Family | Romance